<svg xmlns="http://www.w3.org/2000/svg" viewBox="0 0 90.74 97.57"><defs><style>.cls-1{fill:#fff;}</style></defs><g id="Layer_3" data-name="Layer 3"><path class="cls-1" d="M45.3,90.78a41,41,0,1,1,41-41A41.06,41.06,0,0,1,45.3,90.78Zm0-77.35A36.34,36.34,0,1,0,81.63,49.76,36.37,36.37,0,0,0,45.3,13.43Z"/><rect class="cls-1" x="36.58" y="43.25" width="4.03" height="17.24" rx="0.86" transform="translate(0.86 104.37) rotate(-107.64)"/><rect class="cls-1" x="43.45" y="24.85" width="4.03" height="26.77" rx="0.86" transform="translate(0.75 -0.88) rotate(1.12)"/><rect class="cls-1" x="42.95" y="10.5" width="4.69" height="8.2" rx="0.5"/><rect class="cls-1" x="42.95" y="80.82" width="4.69" height="8.2" rx="0.5"/><rect class="cls-1" x="78.11" y="45.66" width="4.69" height="8.2" rx="0.5" transform="translate(130.22 -30.69) rotate(90)"/><rect class="cls-1" x="7.79" y="45.66" width="4.69" height="8.2" rx="0.5" transform="translate(59.9 39.63) rotate(90)"/></g></svg>