<svg xmlns="http://www.w3.org/2000/svg" viewBox="0 0 108.35 89.74"><defs><style>.cls-1{fill:#fff;}</style></defs><g id="Layer_3" data-name="Layer 3"><path class="cls-1" d="M66.52,19.2l-3.89-3.3a8.89,8.89,0,0,0,.72-3.54A9,9,0,1,0,46.06,15.8l-4,3.4c-.86.73-.28,3.48-.15,3.75l4.4,8.67a2.22,2.22,0,1,0,4-2l-4.09-8.08,2.55-2.16a9,9,0,0,0,11.17.06l2.48,2.1L58.3,29.61a2.22,2.22,0,0,0,4,2L66.66,23C66.8,22.68,67.38,19.93,66.52,19.2Z"/><path class="cls-1" d="M90.09,67.14l3.3-3.89A9,9,0,1,0,96.92,46a8.93,8.93,0,0,0-3.43.68l-3.4-4c-.73-.86-3.48-.28-3.76-.15l-8.66,4.4a2.22,2.22,0,1,0,2,4l8.07-4.1,2.17,2.56a9,9,0,0,0-.06,11.17L87.75,63l-8.07-4.09a2.22,2.22,0,0,0-2,4l8.66,4.39C86.61,67.42,89.36,68,90.09,67.14Z"/><path class="cls-1" d="M18,42.81l-3.3,3.88A9,9,0,1,0,11.19,64a8.94,8.94,0,0,0,3.43-.69l3.4,4c.73.87,3.48.29,3.76.15L30.44,63a2.22,2.22,0,0,0-2-4l-8.07,4.1-2.17-2.55a9,9,0,0,0,.06-11.18l2.11-2.48L28.43,51a2.22,2.22,0,0,0,3-1,2.25,2.25,0,0,0-1-3l-8.66-4.39C21.5,42.52,18.75,41.94,18,42.81Z"/><path class="cls-1" d="M78.68,57.2a3.7,3.7,0,0,1,1.67.4l4.41,2.23a31,31,0,0,0,.45-5.22,31.44,31.44,0,0,0-.35-4.68l-4.51,2.29A3.71,3.71,0,0,1,77,45.61l5.82-3A31.11,31.11,0,0,0,66.68,26.2l-3.09,6.09a3.71,3.71,0,0,1-3.31,2h0a3.7,3.7,0,0,1-1.67-.4,3.73,3.73,0,0,1-1.63-5L59.47,24a30.82,30.82,0,0,0-5.3-.46,31.47,31.47,0,0,0-5.08.42l2.51,5a3.73,3.73,0,0,1-1.63,5,3.73,3.73,0,0,1-1.67.4,3.69,3.69,0,0,1-3.31-2l-3.13-6.17A31.09,31.09,0,0,0,25.45,42.86l5.66,2.88a3.71,3.71,0,0,1,1.63,5,3.71,3.71,0,0,1-3.31,2h0a3.7,3.7,0,0,1-1.67-.4l-4.3-2.18a30.84,30.84,0,0,0,.13,9.68l4.17-2.11a3.58,3.58,0,0,1,1.67-.4A3.69,3.69,0,0,1,33,62.18a3.66,3.66,0,0,1-1.84,2.15l-5.36,2.72a31,31,0,0,0,56.85,0L77,64.21a3.71,3.71,0,0,1,1.68-7ZM57.3,35.82a1.12,1.12,0,0,1,1.12-1.12h1.92a1.12,1.12,0,0,1,1.11,1.12v4.67a1.11,1.11,0,0,1-1.11,1.11H58.42a1.12,1.12,0,0,1-1.12-1.11Zm-4.64-1,1.88-.39a1.12,1.12,0,0,1,1.32.86l1,4.57A1.12,1.12,0,0,1,56,41.22l-1.88.39a1.12,1.12,0,0,1-1.32-.86l-1-4.57A1.11,1.11,0,0,1,52.66,34.86Zm-16,18.29-.68-1.79a1.13,1.13,0,0,1,.65-1.44L41,48.28a1.11,1.11,0,0,1,1.44.65l.67,1.79a1.11,1.11,0,0,1-.65,1.44L38.05,53.8A1.11,1.11,0,0,1,36.61,53.15ZM38,57.72l-.35-1.89a1.11,1.11,0,0,1,.9-1.29l4.59-.84a1.12,1.12,0,0,1,1.3.89l.34,1.89a1.12,1.12,0,0,1-.89,1.3l-4.6.84A1.11,1.11,0,0,1,38,57.72Zm7.36,5.48L40.78,64a1.11,1.11,0,0,1-1.29-.9l-.35-1.89A1.11,1.11,0,0,1,40,60l4.59-.84a1.11,1.11,0,0,1,1.29.89l.35,1.89A1.12,1.12,0,0,1,45.37,63.2Zm4.25-20L47.7,43a1.1,1.1,0,0,1-1-1.19L47,37.16a1.1,1.1,0,0,1,1.19-1l1.92.15a1.1,1.1,0,0,1,1,1.19l-.36,4.66A1.11,1.11,0,0,1,49.62,43.16ZM64,62l-4.23,2a1.11,1.11,0,0,1-1.48-.54L57.59,62h-4a1.11,1.11,0,0,1-1.12-1.11V59a1.11,1.11,0,0,1,1-1.1,1.09,1.09,0,0,1,.24-.51,1.15,1.15,0,0,1-.85-.86l-.13-.67a1.07,1.07,0,0,1-.7-.53l-1-1.67a1.12,1.12,0,0,1,.43-1.52l1.21-.68-.78-.06a1.12,1.12,0,0,1-1-1.2l.15-1.92a1.1,1.1,0,0,1,1.19-1l4.66.36a1.11,1.11,0,0,1,1,1.2l-.15,1.91a1.09,1.09,0,0,1-.16.5l.4.71a1.16,1.16,0,0,1,.14.42,1.11,1.11,0,0,1,1.05.88L59.59,55l.58.65a1.13,1.13,0,0,1-.1,1.58l-1,.9a1.13,1.13,0,0,1,.34.8v.64l2.86-1.34a1.11,1.11,0,0,1,1.48.54l.81,1.74A1.12,1.12,0,0,1,64,62Zm1.22-11.35.15-1.91a1.12,1.12,0,0,1,1.2-1l4.65.36a1.12,1.12,0,0,1,1,1.2l-.15,1.91a1.11,1.11,0,0,1-1.2,1l-4.65-.36A1.13,1.13,0,0,1,65.21,50.67Zm8.46,10.72a1.11,1.11,0,0,1-1.11,1.12H67.89a1.12,1.12,0,0,1-1.11-1.12V59.47a1.11,1.11,0,0,1,1.11-1.11h4.67a1.11,1.11,0,0,1,1.11,1.11Zm-.62-4.48-4.57,1A1.12,1.12,0,0,1,67.16,57l-.39-1.88a1.1,1.1,0,0,1,.86-1.31l4.57-1a1.12,1.12,0,0,1,1.32.87l.39,1.88A1.1,1.1,0,0,1,73.05,56.91Z"/></g></svg>